<?xml version="1.0" encoding="utf-8"?>
<!-- Generator: Adobe Illustrator 27.5.0, SVG Export Plug-In . SVG Version: 6.00 Build 0)  -->
<svg version="1.1" xmlns="http://www.w3.org/2000/svg" xmlns:xlink="http://www.w3.org/1999/xlink" x="0px" y="0px"
	 viewBox="0 0 2200 2200" style="enable-background:new 0 0 2200 2200;" xml:space="preserve">
<g id="background">
	<rect style="fill:#FFFFFF;" width="2200" height="2200"/>
</g>
<g id="Objects">
	<g>
		<path style="fill:#D82B2B;" d="M1803.745,730.814c-38.48-90.964-93.532-172.642-163.658-242.756
			c-70.114-70.127-151.792-125.178-242.756-163.658c-94.211-39.851-194.261-60.06-297.33-60.06s-203.119,20.209-297.33,60.06
			c-90.964,38.467-172.642,93.531-242.756,163.658c-70.127,70.114-125.191,151.792-163.658,242.756
			c-39.851,94.223-60.06,194.26-60.06,297.33c0,103.069,20.209,203.106,60.06,297.33c8.003,18.913,16.711,37.423,26.135,55.505
			l-36.378,299.281c-4.354,35.825,26.047,66.226,61.872,61.872l299.293-36.378c18.082,9.425,36.58,18.132,55.492,26.135
			c94.211,39.851,194.248,60.06,297.33,60.06s203.119-20.209,297.33-60.06c90.964-38.48,172.642-93.531,242.756-163.658
			c70.126-70.114,125.178-151.792,163.658-242.756c39.851-94.224,60.06-194.26,60.06-297.33
			C1863.804,925.075,1843.596,825.038,1803.745,730.814z M1327.48,1566.721c-72.001,30.464-148.546,45.904-227.48,45.904
			s-155.479-15.44-227.48-45.904c-69.585-29.432-132.099-71.586-185.805-125.292c-53.705-53.705-95.859-116.219-125.304-185.805
			c-30.451-72.001-45.891-148.533-45.891-227.48s15.44-155.479,45.891-227.48c17.642-41.701,40.053-81.175,66.729-117.578
			l816.918,816.918C1408.642,1526.681,1369.169,1549.091,1327.48,1566.721z M1638.589,1255.624
			c-17.642,41.701-40.053,81.175-66.729,117.578L754.942,556.284c36.416-26.677,75.877-49.087,117.578-66.729
			c72.001-30.451,148.546-45.891,227.48-45.891s155.479,15.44,227.48,45.891c69.586,29.432,132.099,71.586,185.804,125.304
			c53.705,53.705,95.859,116.219,125.304,185.805c30.451,72.002,45.891,148.533,45.891,227.48S1669.041,1183.623,1638.589,1255.624z
			"/>
		<ellipse style="fill:#D6D6D6;" cx="1100" cy="1912.539" rx="662.866" ry="23.121"/>
	</g>
</g>
</svg>
